<svg xmlns="http://www.w3.org/2000/svg" xmlns:xlink="http://www.w3.org/1999/xlink" width="1080" zoomAndPan="magnify" viewBox="0 0 810 809.999993" height="1080" preserveAspectRatio="xMidYMid meet" version="1.0"><path fill="#000000" d="M 405.140625 375.660156 L 405.066406 375.660156 C 400.730469 375.660156 396.441406 375.238281 392.191406 374.386719 C 387.941406 373.535156 383.820312 372.269531 379.820312 370.597656 C 375.824219 368.925781 372.027344 366.875 368.4375 364.449219 C 364.847656 362.019531 361.535156 359.261719 358.492188 356.175781 C 355.425781 353.09375 352.6875 349.742188 350.277344 346.125 C 347.867188 342.507812 345.828125 338.691406 344.164062 334.675781 C 342.503906 330.65625 341.246094 326.515625 340.390625 322.253906 C 339.539062 317.992188 339.109375 313.6875 339.101562 309.339844 C 339.011719 291.488281 346.695312 273.945312 360.179688 261.246094 C 372.871094 249.289062 389.371094 242.992188 405.464844 244 C 421.351562 243.140625 437.65625 249.480469 450.222656 261.414062 C 463.636719 274.140625 471.265625 291.667969 471.179688 309.503906 C 471.171875 313.847656 470.742188 318.152344 469.886719 322.414062 C 469.03125 326.675781 467.769531 330.8125 466.101562 334.824219 C 464.433594 338.835938 462.390625 342.648438 459.972656 346.261719 C 457.558594 349.875 454.8125 353.214844 451.734375 356.285156 C 448.6875 359.363281 445.367188 362.113281 441.773438 364.53125 C 438.179688 366.949219 434.382812 368.988281 430.382812 370.652344 C 426.382812 372.3125 422.261719 373.566406 418.011719 374.410156 C 413.761719 375.253906 409.472656 375.667969 405.140625 375.660156 Z M 405.140625 375.660156 " fill-opacity="1" fill-rule="nonzero"/><path fill="#000000" d="M 404.800781 566.976562 C 397.484375 566.96875 390.195312 566.542969 382.929688 565.695312 C 375.664062 564.847656 368.46875 563.585938 361.347656 561.914062 C 354.226562 560.238281 347.226562 558.160156 340.34375 555.679688 C 333.460938 553.199219 326.742188 550.332031 320.191406 547.078125 C 303.164062 538.589844 295.519531 531.742188 296.144531 525.535156 L 304.300781 444.636719 C 304.328125 431.855469 309.070312 419.734375 318.015625 409.574219 C 326.683594 399.738281 338.988281 392.410156 352.667969 388.945312 C 358.765625 387.433594 364.953125 386.695312 371.234375 386.726562 L 441.371094 386.726562 C 458.386719 387.761719 474.175781 394.25 485.832031 404.980469 C 497.484375 415.714844 504 429.832031 504.042969 444.613281 L 513.730469 524.871094 C 514.476562 531.113281 507.023438 537.988281 490.257812 546.519531 C 483.695312 549.84375 476.964844 552.773438 470.058594 555.316406 C 463.15625 557.855469 456.128906 559.988281 448.976562 561.710938 C 441.828125 563.433594 434.601562 564.734375 427.296875 565.613281 C 419.992188 566.492188 412.664062 566.949219 405.308594 566.972656 Z M 404.800781 566.976562 " fill-opacity="1" fill-rule="nonzero"/></svg>